<?xml version="1.0" encoding="utf-8"?>
<!--Designed by Vexels.com - 2018 All Rights Reserved - https://vexels.com/terms-and-conditions/-->
<svg version="1.1" id="Layer_1" xmlns="http://www.w3.org/2000/svg" xmlns:xlink="http://www.w3.org/1999/xlink" x="0px" y="0px"
	 viewBox="0 0 1200 1200" enable-background="new 0 0 1200 1200" xml:space="preserve">
<path d="M462.748,821.508c-1.719-3.652-3.384-7.198-4.996-10.663c-0.537-1.128-1.074-2.256-1.585-3.384
	c-0.107-0.188-0.188-0.376-0.295-0.591c-7.037-15.041-13.081-28.014-17.701-37.845l-0.645,1.289l-6.769-16.975L101.113,494.576
	l455.24,524.322c-27.826-57.371-65.94-138.299-93.256-196.611C462.963,822.019,462.856,821.777,462.748,821.508z M773.431,750.277
	l-4.459,3.357l-41.122,85.413l-89.495,185.974l460.531-530.446l-325.535,255.54L773.431,750.277z M599.999,448.324L450.393,744.852
	l0.779,0.591l-1.907,2.847c0.483,1.021,0.94,2.014,1.424,3.035c0.188,0.403,0.376,0.833,0.591,1.262
	c0.51,1.101,1.02,2.229,1.558,3.357c0.214,0.456,0.43,0.94,0.644,1.424c0.618,1.289,1.236,2.605,1.854,3.921
	c0.134,0.323,0.295,0.645,0.456,0.994c0.51,1.074,0.994,2.148,1.504,3.25c1.37,2.9,2.74,5.882,4.163,8.89
	c0.618,1.316,1.235,2.659,1.853,3.976c0.537,1.182,1.101,2.31,1.638,3.491c0.134,0.269,0.269,0.564,0.376,0.833
	c0.806,1.692,1.584,3.384,2.39,5.103l0.161,0.323c1.8,3.841,3.599,7.735,5.453,11.657c0.081,0.188,0.161,0.376,0.269,0.565
	c36.528,78.053,82.485,175.392,110.124,231.823c0.134,0.269,0.268,0.538,0.403,0.806c0.564,1.155,1.128,2.283,1.666,3.384
	c0.161,0.296,0.295,0.591,0.43,0.887c0.564,1.128,1.128,2.256,1.665,3.357c0.108,0.215,0.215,0.43,0.323,0.645
	c0.564,1.155,1.128,2.283,1.666,3.384c0.08,0.161,0.188,0.349,0.268,0.537c1.235,2.498,2.444,4.915,3.573,7.172
	c0.134,0.241,0.241,0.456,0.349,0.672c0.43,0.859,0.86,1.719,1.262,2.525c0.188,0.349,0.35,0.698,0.538,1.047
	c0.349,0.672,0.672,1.343,0.993,1.988c0.188,0.376,0.376,0.725,0.564,1.074c0.296,0.618,0.618,1.209,0.913,1.773
	c0.161,0.376,0.349,0.725,0.537,1.074c0.108,0.188,0.188,0.376,0.296,0.564l151.836-315.49L599.999,448.324z M896.769,435
	l-4.916,16.761l-1.235-2.229l-86.89,217.387l-14.906,37.112L1039.5,435H896.769z M851.323,664.218L1143.339,435h-78.135
	L851.323,664.218z M1067.434,416H1150L992.63,234.074l54.605,133.226L1067.434,416z M902.383,416h144.718l-73.407-178.38
	l-10.367-24.849l-51.839,173.208L902.383,416z M818.958,259.234l68.705,141.334l59.387-198.76l-40.934,18.372L818.958,259.234z
	 M760.511,724.653l46.171-116.007L875.899,435H614.745l41.095,81.868L760.511,724.653z M874.745,416l-10.664-21.656l-61.025-125.349
	L625.516,416H874.745z M463.393,676.682L585.28,435H324.1l115.415,289.249L463.393,676.682z M353.672,357.815L325.228,416h249.309
	l-177.54-147.005L353.672,357.815z M308.092,451.815L303.203,435H160.472l95.378,102.523l155.355,166.824L309.354,449.412
	L308.092,451.815z M345,662.797l0.468,0.026l3.055,2.014l-211.535-227.07l-2.22-2.768H56.661L345,662.366V662.797z M207.423,233.759
	L50,416h82.565L207.423,233.759z M152.898,416H297.59l-60.891-203.494l-76.334,185.549L152.898,416z M312.309,400.568l29.411-60.407
	l39.349-80.927l-128.092-57.426l54.095,181.22L312.309,400.568z M691.571,337.586L780.226,263H419.773l145.927,121.643
	l24.603,20.868l0.268-21.892l9.946,21.219L611,382.867v22.293L691.571,337.586z M390.577,239.127l6.581,4.873h405.738l6.58-4.846
	l1.263,3.191l98.278-43.972l28.928-12.651L816.029,137H383.942l-121.835,48.601l127.206,56.456L390.577,239.127z"/>
</svg>
